<svg xmlns="http://www.w3.org/2000/svg" viewBox="4 5 148 134" fill="currentColor">
<path d="M0 0 C1.007 -0.024 2.015 -0.049 3.053 -0.074 C10.626 -0.103 19.179 0.715 24.944 6.147 C25.906 7.309 26.835 8.498 27.73 9.711 C29.733 12.213 32.396 13.636 35.062 15.375 C36.422 17.02 37.753 18.689 39.062 20.375 C39.711 21.096 40.359 21.816 41.027 22.559 C46.11 28.366 48.727 33.933 51.055 41.273 C52.062 44.375 52.062 44.375 53.18 46.344 C56.453 53.876 54.255 65.7 52.062 73.375 C51.971 73.699 51.971 73.699 51.508 75.34 C45.193 97.208 31.926 116.512 12.062 128.375 C-7.906 137.759 -30.157 137.565 -50.754 130.395 C-52.887 129.486 -54.901 128.48 -56.938 127.375 C-57.657 127.03 -58.376 126.684 -59.117 126.328 C-68.521 121.577 -75.489 114.112 -82.312 106.25 C-82.812 105.676 -83.312 105.103 -83.827 104.512 C-91.572 95.368 -95.447 85.626 -94.875 73.5 C-94.132 66.154 -92.154 59.391 -89.938 52.375 C-89.65 51.247 -89.363 50.119 -89.066 48.957 C-86.909 40.778 -83.756 35.469 -77.938 29.375 C-77.498 28.875 -77.058 28.375 -76.605 27.86 C-62.632 12.073 -42.434 4.872 -21.938 2.375 C-20.36 2.037 -18.785 1.692 -17.211 1.34 C-11.464 0.162 -5.852 0.007 0 0 Z M-59.938 22.375 C-60.733 22.959 -61.528 23.543 -62.348 24.145 C-64.958 26.141 -67.456 28.221 -69.938 30.375 C-70.665 30.985 -71.392 31.594 -72.141 32.223 C-79 38.807 -80.926 47.285 -83.335 56.196 C-83.833 57.997 -84.395 59.781 -84.973 61.559 C-87.521 69.534 -88.898 79.403 -85.688 87.375 C-82.017 93.668 -77.807 99.077 -73.156 104.691 C-71.75 106.392 -70.381 108.126 -69.066 109.898 C-62.179 117.911 -52.068 123.73 -41.938 126.375 C-41.399 126.523 -41.399 126.523 -38.672 127.27 C-22.124 131.332 -4.842 130.169 10.062 121.375 C12.686 119.25 15.125 116.959 17.562 114.625 C18.201 114.029 18.839 113.434 19.496 112.82 C35.437 97.76 44.748 78.776 46.32 56.766 C46.259 51.228 44.445 46.241 42.625 41.062 C42.27 40.044 41.914 39.025 41.548 37.975 C38.628 30.049 35.214 24.26 29.062 18.375 C28.356 17.626 27.65 16.877 26.922 16.105 C25.062 14.375 25.062 14.375 23.062 14.375 C23.062 13.715 23.062 13.055 23.062 12.375 C15.837 5.369 6.951 5.976 -2.473 6.011 C-22.342 6.36 -43.673 10.168 -59.938 22.375 Z " fill="currentColor" transform="translate(98.9375,4.625)"/><path d="M0 0 C5.75 -0.125 5.75 -0.125 8 1 C8.487 4.598 8.044 5.931 6.059 9.051 C5.198 10.148 4.324 11.235 3.438 12.312 C2.98 12.885 2.523 13.458 2.051 14.047 C0.714 15.71 -0.64 17.357 -2 19 C-2.641 19.785 -3.281 20.57 -3.941 21.379 C-13.267 32.436 -27.321 45.028 -41 50 C-40 53 -40 53 -37.953 54.027 C-37.061 54.328 -36.169 54.628 -35.25 54.938 C-34.257 55.274 -33.265 55.61 -32.242 55.956 C-31.172 56.301 -30.102 56.645 -29 57 C-28.455 57.179 -28.455 57.179 -25.695 58.083 C-18.174 60.479 -10.797 62.188 -3.004 63.348 C3.772 64.373 10.383 66.246 17 68 C17.625 70.375 17.625 70.375 18 73 C17.34 73.66 16.68 74.32 16 75 C10.337 74.685 5.061 73.31 -0.41 71.875 C-3.086 71.223 -5.732 70.645 -8.434 70.125 C-18.398 68.199 -27.529 65.581 -36.935 61.795 C-39.184 60.929 -41.452 60.151 -43.738 59.387 C-44.523 59.123 -45.307 58.859 -46.115 58.587 C-47.634 58.08 -49.157 57.582 -50.682 57.092 C-52.487 56.482 -54.249 55.75 -56 55 C-56.165 54.505 -56.165 54.505 -57 52 C-56 50 -56 50 -54.213 49.348 C-53.461 49.144 -52.708 48.941 -51.934 48.73 C-46.849 47.125 -43.202 44.607 -39.062 41.312 C-38.372 40.777 -37.681 40.242 -36.969 39.69 C-35.596 38.624 -34.228 37.551 -32.864 36.473 C-31.262 35.207 -29.646 33.959 -28.027 32.715 C-16.705 23.913 -5.779 13.317 0 0 Z " fill="currentColor" transform="translate(89,22)"/>
</svg>